<mxfile host="app.diagrams.net" modified="2024-06-27T01:30:18.563Z" agent="Mozilla/5.0 (Windows NT 10.0; Win64; x64) AppleWebKit/537.36 (KHTML, like Gecko) Chrome/126.0.0.0 Safari/537.36" etag="OnvftsaMGsjEh8e8tWEV" version="24.6.3" type="device">
  <diagram name="Page-1" id="XDn8oC6SCD3x3fEZOzhj">
    <mxGraphModel dx="1867" dy="767" grid="1" gridSize="10" guides="1" tooltips="1" connect="1" arrows="1" fold="1" page="1" pageScale="1" pageWidth="850" pageHeight="1100" math="0" shadow="0">
      <root>
        <mxCell id="0" />
        <mxCell id="1" parent="0" />
        <mxCell id="h0fHT9Xbu0mXgz_vGLpj-1" value="Dosen Wali" style="swimlane;whiteSpace=wrap" parent="1" vertex="1">
          <mxGeometry x="440" y="160" width="280" height="570" as="geometry" />
        </mxCell>
        <mxCell id="h0fHT9Xbu0mXgz_vGLpj-2" value="" style="endArrow=open;strokeColor=#FF0000;endFill=1;rounded=0" parent="h0fHT9Xbu0mXgz_vGLpj-1" edge="1">
          <mxGeometry relative="1" as="geometry">
            <mxPoint x="130" y="245" as="sourcePoint" />
          </mxGeometry>
        </mxCell>
        <mxCell id="h0fHT9Xbu0mXgz_vGLpj-3" value="Mahasiswa" style="swimlane;whiteSpace=wrap" parent="h0fHT9Xbu0mXgz_vGLpj-1" vertex="1">
          <mxGeometry x="-285.5" width="285.5" height="570" as="geometry" />
        </mxCell>
        <mxCell id="h0fHT9Xbu0mXgz_vGLpj-4" value="" style="ellipse;shape=startState;fillColor=#000000;strokeColor=#ff0000;" parent="h0fHT9Xbu0mXgz_vGLpj-3" vertex="1">
          <mxGeometry x="60" y="40" width="30" height="30" as="geometry" />
        </mxCell>
        <mxCell id="h0fHT9Xbu0mXgz_vGLpj-5" value="" style="edgeStyle=elbowEdgeStyle;elbow=horizontal;verticalAlign=bottom;endArrow=open;endSize=8;strokeColor=#FF0000;endFill=1;rounded=0" parent="h0fHT9Xbu0mXgz_vGLpj-3" source="h0fHT9Xbu0mXgz_vGLpj-4" target="h0fHT9Xbu0mXgz_vGLpj-6" edge="1">
          <mxGeometry x="100" y="40" as="geometry">
            <mxPoint x="115" y="110" as="targetPoint" />
          </mxGeometry>
        </mxCell>
        <mxCell id="h0fHT9Xbu0mXgz_vGLpj-6" value="Log In" style="" parent="h0fHT9Xbu0mXgz_vGLpj-3" vertex="1">
          <mxGeometry x="20" y="92" width="110" height="50" as="geometry" />
        </mxCell>
        <mxCell id="h0fHT9Xbu0mXgz_vGLpj-7" value="Masuk Home&#xa;Mahasiswa" style="" parent="h0fHT9Xbu0mXgz_vGLpj-3" vertex="1">
          <mxGeometry x="20" y="162" width="110" height="50" as="geometry" />
        </mxCell>
        <mxCell id="h0fHT9Xbu0mXgz_vGLpj-8" value="" style="endArrow=open;strokeColor=#FF0000;endFill=1;rounded=0" parent="h0fHT9Xbu0mXgz_vGLpj-3" source="h0fHT9Xbu0mXgz_vGLpj-6" target="h0fHT9Xbu0mXgz_vGLpj-7" edge="1">
          <mxGeometry relative="1" as="geometry" />
        </mxCell>
        <mxCell id="h0fHT9Xbu0mXgz_vGLpj-9" value="" style="endArrow=open;strokeColor=#FF0000;endFill=1;rounded=0" parent="h0fHT9Xbu0mXgz_vGLpj-3" source="h0fHT9Xbu0mXgz_vGLpj-7" target="h0fHT9Xbu0mXgz_vGLpj-10" edge="1">
          <mxGeometry relative="1" as="geometry">
            <mxPoint x="115" y="260" as="targetPoint" />
          </mxGeometry>
        </mxCell>
        <mxCell id="h0fHT9Xbu0mXgz_vGLpj-10" value="Navigasi ke&#xa;Halaman Misi" style="" parent="h0fHT9Xbu0mXgz_vGLpj-3" vertex="1">
          <mxGeometry x="20" y="235" width="110" height="50" as="geometry" />
        </mxCell>
        <mxCell id="h0fHT9Xbu0mXgz_vGLpj-12" value="Request&#xa;Misi" style="" parent="h0fHT9Xbu0mXgz_vGLpj-3" vertex="1">
          <mxGeometry x="20" y="312" width="70" height="48" as="geometry" />
        </mxCell>
        <mxCell id="h0fHT9Xbu0mXgz_vGLpj-13" value="" style="endArrow=open;strokeColor=#FF0000;endFill=1;rounded=0;entryX=0.5;entryY=0;entryDx=0;entryDy=0;" parent="h0fHT9Xbu0mXgz_vGLpj-3" source="h0fHT9Xbu0mXgz_vGLpj-10" target="h0fHT9Xbu0mXgz_vGLpj-12" edge="1">
          <mxGeometry relative="1" as="geometry">
            <mxPoint x="74.74000000000001" y="310" as="sourcePoint" />
            <mxPoint x="74.74000000000001" y="338" as="targetPoint" />
          </mxGeometry>
        </mxCell>
        <mxCell id="h0fHT9Xbu0mXgz_vGLpj-25" value="" style="ellipse;shape=endState;fillColor=#000000;strokeColor=#ff0000" parent="h0fHT9Xbu0mXgz_vGLpj-3" vertex="1">
          <mxGeometry x="132" y="532" width="30" height="30" as="geometry" />
        </mxCell>
        <mxCell id="h0fHT9Xbu0mXgz_vGLpj-26" value="" style="endArrow=open;strokeColor=#FF0000;endFill=1;rounded=0;entryX=0.5;entryY=0;entryDx=0;entryDy=0;exitX=0.5;exitY=1;exitDx=0;exitDy=0;" parent="h0fHT9Xbu0mXgz_vGLpj-3" source="p6a5_rXn_PCWeEMOXH3Z-13" target="h0fHT9Xbu0mXgz_vGLpj-25" edge="1">
          <mxGeometry relative="1" as="geometry">
            <mxPoint x="205" y="512" as="sourcePoint" />
            <mxPoint x="207.56" y="539" as="targetPoint" />
          </mxGeometry>
        </mxCell>
        <mxCell id="p6a5_rXn_PCWeEMOXH3Z-1" value="History&#xa;Misi" style="" vertex="1" parent="h0fHT9Xbu0mXgz_vGLpj-3">
          <mxGeometry x="107.75" y="312" width="70" height="48" as="geometry" />
        </mxCell>
        <mxCell id="p6a5_rXn_PCWeEMOXH3Z-2" value="Gabung&#xa;Guild/UKM" style="" vertex="1" parent="h0fHT9Xbu0mXgz_vGLpj-3">
          <mxGeometry x="196" y="312" width="70" height="48" as="geometry" />
        </mxCell>
        <mxCell id="p6a5_rXn_PCWeEMOXH3Z-3" value="Kirim Bukti&#xa;Misi" style="" vertex="1" parent="h0fHT9Xbu0mXgz_vGLpj-3">
          <mxGeometry x="196" y="382" width="70" height="48" as="geometry" />
        </mxCell>
        <mxCell id="p6a5_rXn_PCWeEMOXH3Z-4" value="Tampilkan&#xa;History" style="" vertex="1" parent="h0fHT9Xbu0mXgz_vGLpj-3">
          <mxGeometry x="111.62" y="382" width="62.25" height="38" as="geometry" />
        </mxCell>
        <mxCell id="p6a5_rXn_PCWeEMOXH3Z-5" value="Isi Detail&#xa;Misi dan&#xa;Bukti" style="" vertex="1" parent="h0fHT9Xbu0mXgz_vGLpj-3">
          <mxGeometry x="23.88" y="382" width="62.25" height="48" as="geometry" />
        </mxCell>
        <mxCell id="p6a5_rXn_PCWeEMOXH3Z-6" value="" style="endArrow=open;strokeColor=#FF0000;endFill=1;rounded=0;exitX=0.5;exitY=1;exitDx=0;exitDy=0;" edge="1" parent="h0fHT9Xbu0mXgz_vGLpj-3" source="h0fHT9Xbu0mXgz_vGLpj-12" target="p6a5_rXn_PCWeEMOXH3Z-5">
          <mxGeometry relative="1" as="geometry">
            <mxPoint x="190" y="362" as="sourcePoint" />
            <mxPoint x="190" y="382" as="targetPoint" />
          </mxGeometry>
        </mxCell>
        <mxCell id="p6a5_rXn_PCWeEMOXH3Z-7" value="" style="endArrow=open;strokeColor=#FF0000;endFill=1;rounded=0;" edge="1" parent="h0fHT9Xbu0mXgz_vGLpj-3" source="p6a5_rXn_PCWeEMOXH3Z-1" target="p6a5_rXn_PCWeEMOXH3Z-4">
          <mxGeometry relative="1" as="geometry">
            <mxPoint x="142.45999999999998" y="360" as="sourcePoint" />
            <mxPoint x="142.45999999999998" y="382" as="targetPoint" />
          </mxGeometry>
        </mxCell>
        <mxCell id="p6a5_rXn_PCWeEMOXH3Z-8" value="" style="endArrow=open;strokeColor=#FF0000;endFill=1;rounded=0;exitX=0.5;exitY=1;exitDx=0;exitDy=0;" edge="1" parent="h0fHT9Xbu0mXgz_vGLpj-3" source="p6a5_rXn_PCWeEMOXH3Z-2" target="p6a5_rXn_PCWeEMOXH3Z-3">
          <mxGeometry relative="1" as="geometry">
            <mxPoint x="220" y="370" as="sourcePoint" />
            <mxPoint x="220" y="392" as="targetPoint" />
          </mxGeometry>
        </mxCell>
        <mxCell id="p6a5_rXn_PCWeEMOXH3Z-9" value="Lihat&#xa;Profil" style="" vertex="1" parent="h0fHT9Xbu0mXgz_vGLpj-3">
          <mxGeometry x="161" y="164" width="70" height="48" as="geometry" />
        </mxCell>
        <mxCell id="p6a5_rXn_PCWeEMOXH3Z-10" value="" style="endArrow=open;strokeColor=#FF0000;endFill=1;rounded=0;exitX=1;exitY=0.5;exitDx=0;exitDy=0;entryX=0;entryY=0.5;entryDx=0;entryDy=0;" edge="1" parent="h0fHT9Xbu0mXgz_vGLpj-3" source="h0fHT9Xbu0mXgz_vGLpj-7" target="p6a5_rXn_PCWeEMOXH3Z-9">
          <mxGeometry relative="1" as="geometry">
            <mxPoint x="153" y="343" as="sourcePoint" />
            <mxPoint x="153" y="365" as="targetPoint" />
          </mxGeometry>
        </mxCell>
        <mxCell id="p6a5_rXn_PCWeEMOXH3Z-13" value="Simpan Ke&#xa;Database" style="" vertex="1" parent="h0fHT9Xbu0mXgz_vGLpj-3">
          <mxGeometry x="107" y="452" width="80" height="50" as="geometry" />
        </mxCell>
        <mxCell id="p6a5_rXn_PCWeEMOXH3Z-14" value="" style="endArrow=open;strokeColor=#FF0000;endFill=1;rounded=0;exitX=0.5;exitY=1;exitDx=0;exitDy=0;entryX=0;entryY=0.5;entryDx=0;entryDy=0;" edge="1" parent="h0fHT9Xbu0mXgz_vGLpj-3" source="p6a5_rXn_PCWeEMOXH3Z-5" target="p6a5_rXn_PCWeEMOXH3Z-13">
          <mxGeometry relative="1" as="geometry">
            <mxPoint x="65" y="370" as="sourcePoint" />
            <mxPoint x="65" y="392" as="targetPoint" />
          </mxGeometry>
        </mxCell>
        <mxCell id="p6a5_rXn_PCWeEMOXH3Z-16" value="" style="endArrow=open;strokeColor=#FF0000;endFill=1;rounded=0;exitX=0.5;exitY=1;exitDx=0;exitDy=0;entryX=1;entryY=0.5;entryDx=0;entryDy=0;" edge="1" parent="h0fHT9Xbu0mXgz_vGLpj-3" source="p6a5_rXn_PCWeEMOXH3Z-3" target="p6a5_rXn_PCWeEMOXH3Z-13">
          <mxGeometry relative="1" as="geometry">
            <mxPoint x="85" y="390" as="sourcePoint" />
            <mxPoint x="85" y="412" as="targetPoint" />
          </mxGeometry>
        </mxCell>
        <mxCell id="p6a5_rXn_PCWeEMOXH3Z-17" value="" style="endArrow=open;strokeColor=#FF0000;endFill=1;rounded=0;entryX=0.5;entryY=0;entryDx=0;entryDy=0;exitX=0.5;exitY=1;exitDx=0;exitDy=0;" edge="1" parent="h0fHT9Xbu0mXgz_vGLpj-3" source="h0fHT9Xbu0mXgz_vGLpj-10" target="p6a5_rXn_PCWeEMOXH3Z-1">
          <mxGeometry relative="1" as="geometry">
            <mxPoint x="75" y="295" as="sourcePoint" />
            <mxPoint x="65" y="322" as="targetPoint" />
          </mxGeometry>
        </mxCell>
        <mxCell id="p6a5_rXn_PCWeEMOXH3Z-18" value="" style="endArrow=open;strokeColor=#FF0000;endFill=1;rounded=0;entryX=0.5;entryY=0;entryDx=0;entryDy=0;exitX=1;exitY=0.75;exitDx=0;exitDy=0;" edge="1" parent="h0fHT9Xbu0mXgz_vGLpj-3" source="h0fHT9Xbu0mXgz_vGLpj-10" target="p6a5_rXn_PCWeEMOXH3Z-2">
          <mxGeometry relative="1" as="geometry">
            <mxPoint x="85" y="295" as="sourcePoint" />
            <mxPoint x="153" y="322" as="targetPoint" />
          </mxGeometry>
        </mxCell>
        <mxCell id="h0fHT9Xbu0mXgz_vGLpj-28" value="" style="ellipse;shape=startState;fillColor=#000000;strokeColor=#ff0000;" parent="h0fHT9Xbu0mXgz_vGLpj-1" vertex="1">
          <mxGeometry x="60.5" y="42" width="30" height="30" as="geometry" />
        </mxCell>
        <mxCell id="h0fHT9Xbu0mXgz_vGLpj-29" value="" style="edgeStyle=elbowEdgeStyle;elbow=horizontal;verticalAlign=bottom;endArrow=open;endSize=8;strokeColor=#FF0000;endFill=1;rounded=0" parent="h0fHT9Xbu0mXgz_vGLpj-1" source="h0fHT9Xbu0mXgz_vGLpj-28" target="h0fHT9Xbu0mXgz_vGLpj-31" edge="1">
          <mxGeometry x="-344.5" y="-88" as="geometry">
            <mxPoint x="75.33333333333348" y="94" as="targetPoint" />
          </mxGeometry>
        </mxCell>
        <mxCell id="h0fHT9Xbu0mXgz_vGLpj-31" value="Log In" style="" parent="h0fHT9Xbu0mXgz_vGLpj-1" vertex="1">
          <mxGeometry x="20.5" y="94" width="110" height="50" as="geometry" />
        </mxCell>
        <mxCell id="h0fHT9Xbu0mXgz_vGLpj-33" value="" style="endArrow=open;strokeColor=#FF0000;endFill=1;rounded=0" parent="h0fHT9Xbu0mXgz_vGLpj-1" source="h0fHT9Xbu0mXgz_vGLpj-31" target="h0fHT9Xbu0mXgz_vGLpj-34" edge="1">
          <mxGeometry relative="1" as="geometry">
            <mxPoint x="115.5" y="262" as="targetPoint" />
          </mxGeometry>
        </mxCell>
        <mxCell id="h0fHT9Xbu0mXgz_vGLpj-34" value="Masuk ke Home&#xa;Dosen Dosen Wali" style="" parent="h0fHT9Xbu0mXgz_vGLpj-1" vertex="1">
          <mxGeometry x="20.5" y="167" width="110" height="50" as="geometry" />
        </mxCell>
        <mxCell id="h0fHT9Xbu0mXgz_vGLpj-35" value="Lihat Permintaan&#xa;Misi" style="" parent="h0fHT9Xbu0mXgz_vGLpj-1" vertex="1">
          <mxGeometry x="20.5" y="244" width="110" height="50" as="geometry" />
        </mxCell>
        <mxCell id="h0fHT9Xbu0mXgz_vGLpj-36" value="" style="endArrow=open;strokeColor=#FF0000;endFill=1;rounded=0;entryX=0.5;entryY=0;entryDx=0;entryDy=0;" parent="h0fHT9Xbu0mXgz_vGLpj-1" source="h0fHT9Xbu0mXgz_vGLpj-34" target="h0fHT9Xbu0mXgz_vGLpj-35" edge="1">
          <mxGeometry relative="1" as="geometry">
            <mxPoint x="75.24000000000001" y="312" as="sourcePoint" />
            <mxPoint x="75.24000000000001" y="340" as="targetPoint" />
          </mxGeometry>
        </mxCell>
        <mxCell id="h0fHT9Xbu0mXgz_vGLpj-37" value="" style="ellipse;shape=endState;fillColor=#000000;strokeColor=#ff0000" parent="h0fHT9Xbu0mXgz_vGLpj-1" vertex="1">
          <mxGeometry x="125" y="513" width="30" height="30" as="geometry" />
        </mxCell>
        <mxCell id="p6a5_rXn_PCWeEMOXH3Z-19" value="ACC/Tolak&#xa;Misi" style="rhombus;fillColor=#ffffc0;strokeColor=#ff0000;" vertex="1" parent="h0fHT9Xbu0mXgz_vGLpj-1">
          <mxGeometry x="158" y="260" width="104.5" height="80" as="geometry" />
        </mxCell>
        <mxCell id="p6a5_rXn_PCWeEMOXH3Z-20" value="" style="edgeStyle=elbowEdgeStyle;elbow=horizontal;align=left;verticalAlign=top;endArrow=open;endSize=8;strokeColor=#FF0000;endFill=1;rounded=0;exitX=0;exitY=1;exitDx=0;exitDy=0;" edge="1" parent="h0fHT9Xbu0mXgz_vGLpj-1" source="p6a5_rXn_PCWeEMOXH3Z-19" target="p6a5_rXn_PCWeEMOXH3Z-24">
          <mxGeometry x="-0.4834" y="3" relative="1" as="geometry">
            <mxPoint x="150" y="259.5" as="targetPoint" />
            <mxPoint x="205.5" y="159.5" as="sourcePoint" />
            <Array as="points">
              <mxPoint x="65" y="360" />
            </Array>
            <mxPoint x="1" as="offset" />
          </mxGeometry>
        </mxCell>
        <mxCell id="p6a5_rXn_PCWeEMOXH3Z-21" value="ACC" style="edgeLabel;html=1;align=center;verticalAlign=middle;resizable=0;points=[];" vertex="1" connectable="0" parent="p6a5_rXn_PCWeEMOXH3Z-20">
          <mxGeometry x="-0.1279" y="-1" relative="1" as="geometry">
            <mxPoint x="32" y="9" as="offset" />
          </mxGeometry>
        </mxCell>
        <mxCell id="p6a5_rXn_PCWeEMOXH3Z-22" value="" style="edgeStyle=elbowEdgeStyle;elbow=horizontal;align=left;verticalAlign=top;endArrow=open;endSize=8;strokeColor=#FF0000;endFill=1;rounded=0;exitX=1;exitY=1;exitDx=0;exitDy=0;" edge="1" parent="h0fHT9Xbu0mXgz_vGLpj-1" source="p6a5_rXn_PCWeEMOXH3Z-19">
          <mxGeometry x="-0.4834" y="3" relative="1" as="geometry">
            <mxPoint x="236" y="370" as="targetPoint" />
            <mxPoint x="238" y="432" as="sourcePoint" />
            <Array as="points">
              <mxPoint x="236" y="340" />
            </Array>
            <mxPoint x="1" as="offset" />
          </mxGeometry>
        </mxCell>
        <mxCell id="p6a5_rXn_PCWeEMOXH3Z-23" value="Tolak" style="edgeLabel;html=1;align=center;verticalAlign=middle;resizable=0;points=[];" vertex="1" connectable="0" parent="p6a5_rXn_PCWeEMOXH3Z-22">
          <mxGeometry x="-0.1279" y="-1" relative="1" as="geometry">
            <mxPoint x="20" y="-5" as="offset" />
          </mxGeometry>
        </mxCell>
        <mxCell id="p6a5_rXn_PCWeEMOXH3Z-24" value="ACC Misi" style="" vertex="1" parent="h0fHT9Xbu0mXgz_vGLpj-1">
          <mxGeometry x="20.5" y="374" width="89.5" height="36" as="geometry" />
        </mxCell>
        <mxCell id="p6a5_rXn_PCWeEMOXH3Z-25" value="Tilak Misi" style="" vertex="1" parent="h0fHT9Xbu0mXgz_vGLpj-1">
          <mxGeometry x="173" y="374" width="89.5" height="36" as="geometry" />
        </mxCell>
        <mxCell id="p6a5_rXn_PCWeEMOXH3Z-26" value="Notifikasi&#xa;Mahasiswa" style="" vertex="1" parent="h0fHT9Xbu0mXgz_vGLpj-1">
          <mxGeometry x="95.25" y="440" width="89.5" height="36" as="geometry" />
        </mxCell>
        <mxCell id="p6a5_rXn_PCWeEMOXH3Z-28" value="" style="endArrow=open;strokeColor=#FF0000;endFill=1;rounded=0;entryX=0.5;entryY=0;entryDx=0;entryDy=0;exitX=0.5;exitY=1;exitDx=0;exitDy=0;" edge="1" parent="h0fHT9Xbu0mXgz_vGLpj-1" source="p6a5_rXn_PCWeEMOXH3Z-24" target="p6a5_rXn_PCWeEMOXH3Z-26">
          <mxGeometry relative="1" as="geometry">
            <mxPoint x="96" y="307" as="sourcePoint" />
            <mxPoint x="96" y="334" as="targetPoint" />
          </mxGeometry>
        </mxCell>
        <mxCell id="p6a5_rXn_PCWeEMOXH3Z-27" value="" style="endArrow=open;strokeColor=#FF0000;endFill=1;rounded=0;entryX=0.5;entryY=0;entryDx=0;entryDy=0;exitX=0.5;exitY=1;exitDx=0;exitDy=0;" edge="1" parent="h0fHT9Xbu0mXgz_vGLpj-1" source="p6a5_rXn_PCWeEMOXH3Z-25" target="p6a5_rXn_PCWeEMOXH3Z-26">
          <mxGeometry relative="1" as="geometry">
            <mxPoint x="86" y="297" as="sourcePoint" />
            <mxPoint x="86" y="324" as="targetPoint" />
          </mxGeometry>
        </mxCell>
        <mxCell id="p6a5_rXn_PCWeEMOXH3Z-29" value="" style="endArrow=open;strokeColor=#FF0000;endFill=1;rounded=0;entryX=0.5;entryY=0;entryDx=0;entryDy=0;exitX=0.5;exitY=1;exitDx=0;exitDy=0;" edge="1" parent="h0fHT9Xbu0mXgz_vGLpj-1" source="p6a5_rXn_PCWeEMOXH3Z-26" target="h0fHT9Xbu0mXgz_vGLpj-37">
          <mxGeometry relative="1" as="geometry">
            <mxPoint x="228" y="490" as="sourcePoint" />
            <mxPoint x="150" y="520" as="targetPoint" />
          </mxGeometry>
        </mxCell>
        <mxCell id="p6a5_rXn_PCWeEMOXH3Z-30" value="" style="endArrow=open;strokeColor=#FF0000;endFill=1;rounded=0;entryX=0;entryY=0;entryDx=0;entryDy=0;exitX=1;exitY=0.5;exitDx=0;exitDy=0;" edge="1" parent="h0fHT9Xbu0mXgz_vGLpj-1" source="h0fHT9Xbu0mXgz_vGLpj-35" target="p6a5_rXn_PCWeEMOXH3Z-19">
          <mxGeometry relative="1" as="geometry">
            <mxPoint x="86" y="297" as="sourcePoint" />
            <mxPoint x="86" y="324" as="targetPoint" />
          </mxGeometry>
        </mxCell>
        <mxCell id="p6a5_rXn_PCWeEMOXH3Z-31" value="Lihat&#xa;Profil" style="" vertex="1" parent="h0fHT9Xbu0mXgz_vGLpj-1">
          <mxGeometry x="161.5" y="169" width="70" height="48" as="geometry" />
        </mxCell>
        <mxCell id="p6a5_rXn_PCWeEMOXH3Z-32" value="" style="endArrow=open;strokeColor=#FF0000;endFill=1;rounded=0;entryX=0;entryY=0.5;entryDx=0;entryDy=0;exitX=1;exitY=0.5;exitDx=0;exitDy=0;" edge="1" parent="h0fHT9Xbu0mXgz_vGLpj-1" target="p6a5_rXn_PCWeEMOXH3Z-31" source="h0fHT9Xbu0mXgz_vGLpj-34">
          <mxGeometry relative="1" as="geometry">
            <mxPoint x="130.5" y="263.3604651162791" as="sourcePoint" />
            <mxPoint x="153.5" y="440" as="targetPoint" />
          </mxGeometry>
        </mxCell>
        <mxCell id="p6a5_rXn_PCWeEMOXH3Z-33" value="Admin UKM" style="swimlane;whiteSpace=wrap" vertex="1" parent="1">
          <mxGeometry x="720" y="160" width="285.5" height="570" as="geometry" />
        </mxCell>
        <mxCell id="p6a5_rXn_PCWeEMOXH3Z-34" value="" style="ellipse;shape=startState;fillColor=#000000;strokeColor=#ff0000;" vertex="1" parent="p6a5_rXn_PCWeEMOXH3Z-33">
          <mxGeometry x="60" y="40" width="30" height="30" as="geometry" />
        </mxCell>
        <mxCell id="p6a5_rXn_PCWeEMOXH3Z-35" value="" style="edgeStyle=elbowEdgeStyle;elbow=horizontal;verticalAlign=bottom;endArrow=open;endSize=8;strokeColor=#FF0000;endFill=1;rounded=0" edge="1" parent="p6a5_rXn_PCWeEMOXH3Z-33" source="p6a5_rXn_PCWeEMOXH3Z-34" target="p6a5_rXn_PCWeEMOXH3Z-36">
          <mxGeometry x="100" y="40" as="geometry">
            <mxPoint x="115" y="110" as="targetPoint" />
          </mxGeometry>
        </mxCell>
        <mxCell id="p6a5_rXn_PCWeEMOXH3Z-36" value="Log In" style="" vertex="1" parent="p6a5_rXn_PCWeEMOXH3Z-33">
          <mxGeometry x="20" y="92" width="110" height="50" as="geometry" />
        </mxCell>
        <mxCell id="p6a5_rXn_PCWeEMOXH3Z-37" value="Masuk Home&#xa;Admin UKM" style="" vertex="1" parent="p6a5_rXn_PCWeEMOXH3Z-33">
          <mxGeometry x="20" y="162" width="110" height="50" as="geometry" />
        </mxCell>
        <mxCell id="p6a5_rXn_PCWeEMOXH3Z-38" value="" style="endArrow=open;strokeColor=#FF0000;endFill=1;rounded=0" edge="1" parent="p6a5_rXn_PCWeEMOXH3Z-33" source="p6a5_rXn_PCWeEMOXH3Z-36" target="p6a5_rXn_PCWeEMOXH3Z-37">
          <mxGeometry relative="1" as="geometry" />
        </mxCell>
        <mxCell id="p6a5_rXn_PCWeEMOXH3Z-39" value="" style="endArrow=open;strokeColor=#FF0000;endFill=1;rounded=0" edge="1" parent="p6a5_rXn_PCWeEMOXH3Z-33" source="p6a5_rXn_PCWeEMOXH3Z-37" target="p6a5_rXn_PCWeEMOXH3Z-40">
          <mxGeometry relative="1" as="geometry">
            <mxPoint x="115" y="260" as="targetPoint" />
          </mxGeometry>
        </mxCell>
        <mxCell id="p6a5_rXn_PCWeEMOXH3Z-40" value="Tampilkan Daftar&#xa;Misi UKM" style="" vertex="1" parent="p6a5_rXn_PCWeEMOXH3Z-33">
          <mxGeometry x="90" y="235" width="110" height="50" as="geometry" />
        </mxCell>
        <mxCell id="p6a5_rXn_PCWeEMOXH3Z-41" value="Tambah&#xa;Misi" style="" vertex="1" parent="p6a5_rXn_PCWeEMOXH3Z-33">
          <mxGeometry x="20" y="312" width="70" height="48" as="geometry" />
        </mxCell>
        <mxCell id="p6a5_rXn_PCWeEMOXH3Z-42" value="" style="endArrow=open;strokeColor=#FF0000;endFill=1;rounded=0;entryX=0.5;entryY=0;entryDx=0;entryDy=0;" edge="1" parent="p6a5_rXn_PCWeEMOXH3Z-33" source="p6a5_rXn_PCWeEMOXH3Z-37" target="p6a5_rXn_PCWeEMOXH3Z-41">
          <mxGeometry relative="1" as="geometry">
            <mxPoint x="74.74000000000001" y="310" as="sourcePoint" />
            <mxPoint x="74.74000000000001" y="338" as="targetPoint" />
          </mxGeometry>
        </mxCell>
        <mxCell id="p6a5_rXn_PCWeEMOXH3Z-43" value="" style="ellipse;shape=endState;fillColor=#000000;strokeColor=#ff0000" vertex="1" parent="p6a5_rXn_PCWeEMOXH3Z-33">
          <mxGeometry x="125.82" y="520" width="30" height="30" as="geometry" />
        </mxCell>
        <mxCell id="p6a5_rXn_PCWeEMOXH3Z-44" value="" style="endArrow=open;strokeColor=#FF0000;endFill=1;rounded=0;entryX=0.5;entryY=0;entryDx=0;entryDy=0;exitX=0.5;exitY=1;exitDx=0;exitDy=0;" edge="1" parent="p6a5_rXn_PCWeEMOXH3Z-33" source="p6a5_rXn_PCWeEMOXH3Z-55" target="p6a5_rXn_PCWeEMOXH3Z-43">
          <mxGeometry relative="1" as="geometry">
            <mxPoint x="205" y="512" as="sourcePoint" />
            <mxPoint x="207.56" y="539" as="targetPoint" />
          </mxGeometry>
        </mxCell>
        <mxCell id="p6a5_rXn_PCWeEMOXH3Z-45" value="Hapus Misi" style="" vertex="1" parent="p6a5_rXn_PCWeEMOXH3Z-33">
          <mxGeometry x="107.75" y="312" width="70" height="48" as="geometry" />
        </mxCell>
        <mxCell id="p6a5_rXn_PCWeEMOXH3Z-46" value="Edit Misi" style="" vertex="1" parent="p6a5_rXn_PCWeEMOXH3Z-33">
          <mxGeometry x="196" y="312" width="70" height="48" as="geometry" />
        </mxCell>
        <mxCell id="p6a5_rXn_PCWeEMOXH3Z-47" value="Mengedit&#xa;Misi" style="" vertex="1" parent="p6a5_rXn_PCWeEMOXH3Z-33">
          <mxGeometry x="196" y="382" width="70" height="48" as="geometry" />
        </mxCell>
        <mxCell id="p6a5_rXn_PCWeEMOXH3Z-48" value="Menghapus&#xa;Misi" style="" vertex="1" parent="p6a5_rXn_PCWeEMOXH3Z-33">
          <mxGeometry x="103.88" y="387" width="73.87" height="38" as="geometry" />
        </mxCell>
        <mxCell id="p6a5_rXn_PCWeEMOXH3Z-49" value="Isi Detail&#xa;Misi" style="" vertex="1" parent="p6a5_rXn_PCWeEMOXH3Z-33">
          <mxGeometry x="23.88" y="382" width="62.25" height="38" as="geometry" />
        </mxCell>
        <mxCell id="p6a5_rXn_PCWeEMOXH3Z-50" value="" style="endArrow=open;strokeColor=#FF0000;endFill=1;rounded=0;exitX=0.5;exitY=1;exitDx=0;exitDy=0;" edge="1" parent="p6a5_rXn_PCWeEMOXH3Z-33" source="p6a5_rXn_PCWeEMOXH3Z-41" target="p6a5_rXn_PCWeEMOXH3Z-49">
          <mxGeometry relative="1" as="geometry">
            <mxPoint x="190" y="362" as="sourcePoint" />
            <mxPoint x="190" y="382" as="targetPoint" />
          </mxGeometry>
        </mxCell>
        <mxCell id="p6a5_rXn_PCWeEMOXH3Z-51" value="" style="endArrow=open;strokeColor=#FF0000;endFill=1;rounded=0;" edge="1" parent="p6a5_rXn_PCWeEMOXH3Z-33" source="p6a5_rXn_PCWeEMOXH3Z-45" target="p6a5_rXn_PCWeEMOXH3Z-48">
          <mxGeometry relative="1" as="geometry">
            <mxPoint x="142.45999999999998" y="360" as="sourcePoint" />
            <mxPoint x="142.45999999999998" y="382" as="targetPoint" />
          </mxGeometry>
        </mxCell>
        <mxCell id="p6a5_rXn_PCWeEMOXH3Z-52" value="" style="endArrow=open;strokeColor=#FF0000;endFill=1;rounded=0;exitX=0.5;exitY=1;exitDx=0;exitDy=0;" edge="1" parent="p6a5_rXn_PCWeEMOXH3Z-33" source="p6a5_rXn_PCWeEMOXH3Z-46" target="p6a5_rXn_PCWeEMOXH3Z-47">
          <mxGeometry relative="1" as="geometry">
            <mxPoint x="220" y="370" as="sourcePoint" />
            <mxPoint x="220" y="392" as="targetPoint" />
          </mxGeometry>
        </mxCell>
        <mxCell id="p6a5_rXn_PCWeEMOXH3Z-53" value="Lihat&#xa;Profil" style="" vertex="1" parent="p6a5_rXn_PCWeEMOXH3Z-33">
          <mxGeometry x="161" y="164" width="70" height="48" as="geometry" />
        </mxCell>
        <mxCell id="p6a5_rXn_PCWeEMOXH3Z-54" value="" style="endArrow=open;strokeColor=#FF0000;endFill=1;rounded=0;exitX=1;exitY=0.5;exitDx=0;exitDy=0;entryX=0;entryY=0.5;entryDx=0;entryDy=0;" edge="1" parent="p6a5_rXn_PCWeEMOXH3Z-33" source="p6a5_rXn_PCWeEMOXH3Z-37" target="p6a5_rXn_PCWeEMOXH3Z-53">
          <mxGeometry relative="1" as="geometry">
            <mxPoint x="153" y="343" as="sourcePoint" />
            <mxPoint x="153" y="365" as="targetPoint" />
          </mxGeometry>
        </mxCell>
        <mxCell id="p6a5_rXn_PCWeEMOXH3Z-55" value="Simpan Ke&#xa;Database" style="" vertex="1" parent="p6a5_rXn_PCWeEMOXH3Z-33">
          <mxGeometry x="100.82" y="452" width="80" height="50" as="geometry" />
        </mxCell>
        <mxCell id="p6a5_rXn_PCWeEMOXH3Z-56" value="" style="endArrow=open;strokeColor=#FF0000;endFill=1;rounded=0;exitX=0.5;exitY=1;exitDx=0;exitDy=0;entryX=0;entryY=0.5;entryDx=0;entryDy=0;" edge="1" parent="p6a5_rXn_PCWeEMOXH3Z-33" source="p6a5_rXn_PCWeEMOXH3Z-49" target="p6a5_rXn_PCWeEMOXH3Z-55">
          <mxGeometry relative="1" as="geometry">
            <mxPoint x="65" y="370" as="sourcePoint" />
            <mxPoint x="65" y="392" as="targetPoint" />
          </mxGeometry>
        </mxCell>
        <mxCell id="p6a5_rXn_PCWeEMOXH3Z-57" value="" style="endArrow=open;strokeColor=#FF0000;endFill=1;rounded=0;exitX=0.5;exitY=1;exitDx=0;exitDy=0;entryX=1;entryY=0.5;entryDx=0;entryDy=0;" edge="1" parent="p6a5_rXn_PCWeEMOXH3Z-33" source="p6a5_rXn_PCWeEMOXH3Z-47" target="p6a5_rXn_PCWeEMOXH3Z-55">
          <mxGeometry relative="1" as="geometry">
            <mxPoint x="85" y="390" as="sourcePoint" />
            <mxPoint x="85" y="412" as="targetPoint" />
          </mxGeometry>
        </mxCell>
        <mxCell id="p6a5_rXn_PCWeEMOXH3Z-58" value="" style="endArrow=open;strokeColor=#FF0000;endFill=1;rounded=0;entryX=0.5;entryY=0;entryDx=0;entryDy=0;exitX=0.5;exitY=1;exitDx=0;exitDy=0;" edge="1" parent="p6a5_rXn_PCWeEMOXH3Z-33" source="p6a5_rXn_PCWeEMOXH3Z-40" target="p6a5_rXn_PCWeEMOXH3Z-45">
          <mxGeometry relative="1" as="geometry">
            <mxPoint x="75" y="295" as="sourcePoint" />
            <mxPoint x="65" y="322" as="targetPoint" />
          </mxGeometry>
        </mxCell>
        <mxCell id="p6a5_rXn_PCWeEMOXH3Z-59" value="" style="endArrow=open;strokeColor=#FF0000;endFill=1;rounded=0;entryX=0.5;entryY=0;entryDx=0;entryDy=0;exitX=1;exitY=0.75;exitDx=0;exitDy=0;" edge="1" parent="p6a5_rXn_PCWeEMOXH3Z-33" source="p6a5_rXn_PCWeEMOXH3Z-40" target="p6a5_rXn_PCWeEMOXH3Z-46">
          <mxGeometry relative="1" as="geometry">
            <mxPoint x="85" y="295" as="sourcePoint" />
            <mxPoint x="153" y="322" as="targetPoint" />
          </mxGeometry>
        </mxCell>
        <mxCell id="p6a5_rXn_PCWeEMOXH3Z-61" value="" style="endArrow=open;strokeColor=#FF0000;endFill=1;rounded=0;exitX=0.5;exitY=1;exitDx=0;exitDy=0;" edge="1" parent="p6a5_rXn_PCWeEMOXH3Z-33" source="p6a5_rXn_PCWeEMOXH3Z-48" target="p6a5_rXn_PCWeEMOXH3Z-55">
          <mxGeometry relative="1" as="geometry">
            <mxPoint x="241" y="370" as="sourcePoint" />
            <mxPoint x="241" y="392" as="targetPoint" />
          </mxGeometry>
        </mxCell>
      </root>
    </mxGraphModel>
  </diagram>
</mxfile>
